<mxfile host="Electron" agent="Mozilla/5.0 (Windows NT 10.0; Win64; x64) AppleWebKit/537.36 (KHTML, like Gecko) draw.io/26.2.2 Chrome/134.0.6998.178 Electron/35.1.2 Safari/537.36" version="26.2.2">
  <diagram name="SDWAN" id="TAWg3cv4MUI7SG6aaTCA">
    <mxGraphModel dx="2068" dy="1201" grid="1" gridSize="10" guides="1" tooltips="1" connect="1" arrows="1" fold="1" page="1" pageScale="1" pageWidth="827" pageHeight="1169" math="0" shadow="0">
      <root>
        <mxCell id="0" />
        <mxCell id="1" parent="0" />
        <mxCell id="b8mOVBxSiegJ0ctqpOjZ-24" value="Internet" style="ellipse;shape=cloud;whiteSpace=wrap;html=1;labelBackgroundColor=none;align=center;verticalAlign=middle;fontFamily=Lucida Console;" parent="1" vertex="1">
          <mxGeometry x="90" y="299" width="250" height="210" as="geometry" />
        </mxCell>
        <mxCell id="b8mOVBxSiegJ0ctqpOjZ-13" value="Intranet&lt;div&gt;(open)&lt;/div&gt;" style="ellipse;shape=cloud;whiteSpace=wrap;html=1;labelBackgroundColor=none;fontFamily=Lucida Console;" parent="1" vertex="1">
          <mxGeometry x="177" y="469" width="584" height="234" as="geometry" />
        </mxCell>
        <mxCell id="b8mOVBxSiegJ0ctqpOjZ-1" value="" style="sketch=0;points=[[0.5,0,0],[1,0.5,0],[0.5,1,0],[0,0.5,0],[0.145,0.145,0],[0.8555,0.145,0],[0.855,0.8555,0],[0.145,0.855,0]];verticalLabelPosition=bottom;html=1;verticalAlign=top;aspect=fixed;align=center;pointerEvents=1;shape=mxgraph.cisco19.rect;prIcon=vmanage;fillColor=#FAFAFA;strokeColor=#005073;" parent="1" vertex="1">
          <mxGeometry x="320" y="729" width="50" height="50" as="geometry" />
        </mxCell>
        <mxCell id="b8mOVBxSiegJ0ctqpOjZ-2" value="" style="sketch=0;points=[[0.5,0,0],[1,0.5,0],[0.5,1,0],[0,0.5,0],[0.145,0.145,0],[0.8555,0.145,0],[0.855,0.8555,0],[0.145,0.855,0]];verticalLabelPosition=bottom;html=1;verticalAlign=top;aspect=fixed;align=center;pointerEvents=1;shape=mxgraph.cisco19.rect;prIcon=vsmart;fillColor=#FAFAFA;strokeColor=#005073;" parent="1" vertex="1">
          <mxGeometry x="220" y="719" width="50" height="50" as="geometry" />
        </mxCell>
        <mxCell id="b8mOVBxSiegJ0ctqpOjZ-3" value="" style="sketch=0;points=[[0.5,0,0],[1,0.5,0],[0.5,1,0],[0,0.5,0],[0.145,0.145,0],[0.8555,0.145,0],[0.855,0.8555,0],[0.145,0.855,0]];verticalLabelPosition=bottom;html=1;verticalAlign=top;aspect=fixed;align=center;pointerEvents=1;shape=mxgraph.cisco19.rect;prIcon=vbond;fillColor=#FAFAFA;strokeColor=#005073;" parent="1" vertex="1">
          <mxGeometry x="147" y="679" width="50" height="50" as="geometry" />
        </mxCell>
        <mxCell id="b8mOVBxSiegJ0ctqpOjZ-6" value="" style="sketch=0;outlineConnect=0;fontColor=#232F3E;gradientColor=none;fillColor=#232F3D;strokeColor=none;dashed=0;verticalLabelPosition=bottom;verticalAlign=top;align=center;html=1;fontSize=12;fontStyle=0;aspect=fixed;pointerEvents=1;shape=mxgraph.aws4.git_repository;" parent="1" vertex="1">
          <mxGeometry x="166" y="299" width="60" height="78" as="geometry" />
        </mxCell>
        <mxCell id="b8mOVBxSiegJ0ctqpOjZ-9" value="" style="dashed=0;outlineConnect=0;html=1;align=center;labelPosition=center;verticalLabelPosition=bottom;verticalAlign=top;shape=mxgraph.weblogos.github" parent="1" vertex="1">
          <mxGeometry x="136" y="249" width="50" height="50" as="geometry" />
        </mxCell>
        <mxCell id="b8mOVBxSiegJ0ctqpOjZ-12" value="" style="endArrow=classic;html=1;rounded=0;strokeWidth=3;entryX=0.507;entryY=0.021;entryDx=0;entryDy=0;entryPerimeter=0;" parent="1" target="b8mOVBxSiegJ0ctqpOjZ-22" edge="1">
          <mxGeometry width="50" height="50" relative="1" as="geometry">
            <mxPoint x="157" y="309" as="sourcePoint" />
            <mxPoint x="160" y="499" as="targetPoint" />
          </mxGeometry>
        </mxCell>
        <mxCell id="b8mOVBxSiegJ0ctqpOjZ-27" value="workflow" style="edgeLabel;html=1;align=center;verticalAlign=middle;resizable=0;points=[];" parent="b8mOVBxSiegJ0ctqpOjZ-12" vertex="1" connectable="0">
          <mxGeometry x="-0.1884" y="1" relative="1" as="geometry">
            <mxPoint x="-1" y="-55" as="offset" />
          </mxGeometry>
        </mxCell>
        <mxCell id="b8mOVBxSiegJ0ctqpOjZ-15" value="" style="sketch=0;points=[[0.5,0,0],[1,0.5,0],[0.5,1,0],[0,0.5,0],[0.145,0.145,0],[0.8555,0.145,0],[0.855,0.8555,0],[0.145,0.855,0]];verticalLabelPosition=bottom;html=1;verticalAlign=top;aspect=fixed;align=center;pointerEvents=1;shape=mxgraph.cisco19.rect;prIcon=router;fillColor=#FAFAFA;strokeColor=#005073;" parent="1" vertex="1">
          <mxGeometry x="470" y="759" width="50" height="50" as="geometry" />
        </mxCell>
        <mxCell id="b8mOVBxSiegJ0ctqpOjZ-16" value="" style="sketch=0;points=[[0.5,0,0],[1,0.5,0],[0.5,1,0],[0,0.5,0],[0.145,0.145,0],[0.8555,0.145,0],[0.855,0.8555,0],[0.145,0.855,0]];verticalLabelPosition=bottom;html=1;verticalAlign=top;aspect=fixed;align=center;pointerEvents=1;shape=mxgraph.cisco19.rect;prIcon=router;fillColor=#FAFAFA;strokeColor=#005073;" parent="1" vertex="1">
          <mxGeometry x="561" y="759" width="50" height="50" as="geometry" />
        </mxCell>
        <mxCell id="b8mOVBxSiegJ0ctqpOjZ-17" value="" style="sketch=0;points=[[0.5,0,0],[1,0.5,0],[0.5,1,0],[0,0.5,0],[0.145,0.145,0],[0.8555,0.145,0],[0.855,0.8555,0],[0.145,0.855,0]];verticalLabelPosition=bottom;html=1;verticalAlign=top;aspect=fixed;align=center;pointerEvents=1;shape=mxgraph.cisco19.rect;prIcon=router;fillColor=#FAFAFA;strokeColor=#005073;" parent="1" vertex="1">
          <mxGeometry x="889" y="759" width="50" height="50" as="geometry" />
        </mxCell>
        <mxCell id="b8mOVBxSiegJ0ctqpOjZ-18" value="" style="sketch=0;points=[[0.5,0,0],[1,0.5,0],[0.5,1,0],[0,0.5,0],[0.145,0.145,0],[0.8555,0.145,0],[0.855,0.8555,0],[0.145,0.855,0]];verticalLabelPosition=bottom;html=1;verticalAlign=top;aspect=fixed;align=center;pointerEvents=1;shape=mxgraph.cisco19.rect;prIcon=router;fillColor=#FAFAFA;strokeColor=#005073;" parent="1" vertex="1">
          <mxGeometry x="979" y="759" width="50" height="50" as="geometry" />
        </mxCell>
        <mxCell id="b8mOVBxSiegJ0ctqpOjZ-22" value="self-hosted&lt;div&gt;runner&lt;/div&gt;" style="image;aspect=fixed;html=1;points=[];align=center;fontSize=12;image=img/lib/azure2/compute/Virtual_Machine.svg;" parent="1" vertex="1">
          <mxGeometry x="131.32999999999998" y="515" width="50.67" height="47" as="geometry" />
        </mxCell>
        <mxCell id="b8mOVBxSiegJ0ctqpOjZ-11" value="" style="dashed=0;outlineConnect=0;html=1;align=center;labelPosition=center;verticalLabelPosition=bottom;verticalAlign=top;shape=mxgraph.weblogos.github;labelBackgroundColor=none;" parent="1" vertex="1">
          <mxGeometry x="122" y="495" width="25" height="25" as="geometry" />
        </mxCell>
        <mxCell id="b8mOVBxSiegJ0ctqpOjZ-25" value="" style="endArrow=classic;html=1;rounded=0;edgeStyle=orthogonalEdgeStyle;curved=1;strokeWidth=3;" parent="1" target="b8mOVBxSiegJ0ctqpOjZ-1" edge="1">
          <mxGeometry width="50" height="50" relative="1" as="geometry">
            <mxPoint x="186" y="529" as="sourcePoint" />
            <mxPoint x="380" y="749" as="targetPoint" />
            <Array as="points" />
          </mxGeometry>
        </mxCell>
        <mxCell id="b8mOVBxSiegJ0ctqpOjZ-28" value="Intranet&lt;div&gt;(secured)&lt;/div&gt;" style="ellipse;shape=cloud;whiteSpace=wrap;html=1;labelBackgroundColor=none;fontFamily=Lucida Console;" parent="1" vertex="1">
          <mxGeometry x="760" y="469" width="460" height="224" as="geometry" />
        </mxCell>
        <mxCell id="b8mOVBxSiegJ0ctqpOjZ-29" value="" style="endArrow=none;html=1;rounded=0;exitX=0.8555;exitY=0.145;exitDx=0;exitDy=0;exitPerimeter=0;entryX=0.72;entryY=0.897;entryDx=0;entryDy=0;entryPerimeter=0;" parent="1" source="b8mOVBxSiegJ0ctqpOjZ-18" target="b8mOVBxSiegJ0ctqpOjZ-28" edge="1">
          <mxGeometry width="50" height="50" relative="1" as="geometry">
            <mxPoint x="800" y="775" as="sourcePoint" />
            <mxPoint x="1100" y="669" as="targetPoint" />
          </mxGeometry>
        </mxCell>
        <mxCell id="b8mOVBxSiegJ0ctqpOjZ-31" value="" style="endArrow=none;html=1;rounded=0;exitX=1;exitY=0.5;exitDx=0;exitDy=0;exitPerimeter=0;entryX=0;entryY=0.5;entryDx=0;entryDy=0;entryPerimeter=0;" parent="1" source="b8mOVBxSiegJ0ctqpOjZ-17" target="b8mOVBxSiegJ0ctqpOjZ-18" edge="1">
          <mxGeometry width="50" height="50" relative="1" as="geometry">
            <mxPoint x="1029" y="599" as="sourcePoint" />
            <mxPoint x="1079" y="549" as="targetPoint" />
          </mxGeometry>
        </mxCell>
        <mxCell id="b8mOVBxSiegJ0ctqpOjZ-33" value="" style="endArrow=none;html=1;rounded=0;exitX=0.145;exitY=0.145;exitDx=0;exitDy=0;exitPerimeter=0;entryX=0.8;entryY=0.8;entryDx=0;entryDy=0;entryPerimeter=0;" parent="1" source="b8mOVBxSiegJ0ctqpOjZ-17" target="b8mOVBxSiegJ0ctqpOjZ-13" edge="1">
          <mxGeometry width="50" height="50" relative="1" as="geometry">
            <mxPoint x="850" y="599" as="sourcePoint" />
            <mxPoint x="900" y="549" as="targetPoint" />
          </mxGeometry>
        </mxCell>
        <mxCell id="b8mOVBxSiegJ0ctqpOjZ-34" value="" style="endArrow=none;html=1;rounded=0;exitX=0.5;exitY=0;exitDx=0;exitDy=0;exitPerimeter=0;entryX=0.31;entryY=0.8;entryDx=0;entryDy=0;entryPerimeter=0;" parent="1" source="b8mOVBxSiegJ0ctqpOjZ-1" target="b8mOVBxSiegJ0ctqpOjZ-13" edge="1">
          <mxGeometry width="50" height="50" relative="1" as="geometry">
            <mxPoint x="850" y="599" as="sourcePoint" />
            <mxPoint x="900" y="549" as="targetPoint" />
          </mxGeometry>
        </mxCell>
        <mxCell id="b8mOVBxSiegJ0ctqpOjZ-35" value="" style="endArrow=none;html=1;rounded=0;exitX=0.941;exitY=0.766;exitDx=0;exitDy=0;exitPerimeter=0;entryX=0.079;entryY=0.355;entryDx=0;entryDy=0;entryPerimeter=0;" parent="1" source="b8mOVBxSiegJ0ctqpOjZ-22" target="b8mOVBxSiegJ0ctqpOjZ-13" edge="1">
          <mxGeometry width="50" height="50" relative="1" as="geometry">
            <mxPoint x="850" y="599" as="sourcePoint" />
            <mxPoint x="900" y="549" as="targetPoint" />
          </mxGeometry>
        </mxCell>
        <mxCell id="b8mOVBxSiegJ0ctqpOjZ-36" value="" style="endArrow=none;html=1;rounded=0;exitX=0.8555;exitY=0.145;exitDx=0;exitDy=0;exitPerimeter=0;entryX=0.13;entryY=0.77;entryDx=0;entryDy=0;entryPerimeter=0;" parent="1" source="b8mOVBxSiegJ0ctqpOjZ-3" target="b8mOVBxSiegJ0ctqpOjZ-13" edge="1">
          <mxGeometry width="50" height="50" relative="1" as="geometry">
            <mxPoint x="850" y="599" as="sourcePoint" />
            <mxPoint x="900" y="549" as="targetPoint" />
          </mxGeometry>
        </mxCell>
        <mxCell id="b8mOVBxSiegJ0ctqpOjZ-37" value="" style="endArrow=none;html=1;rounded=0;exitX=0.8555;exitY=0.145;exitDx=0;exitDy=0;exitPerimeter=0;entryX=0.228;entryY=0.821;entryDx=0;entryDy=0;entryPerimeter=0;" parent="1" source="b8mOVBxSiegJ0ctqpOjZ-2" target="b8mOVBxSiegJ0ctqpOjZ-13" edge="1">
          <mxGeometry width="50" height="50" relative="1" as="geometry">
            <mxPoint x="850" y="599" as="sourcePoint" />
            <mxPoint x="900" y="549" as="targetPoint" />
          </mxGeometry>
        </mxCell>
        <mxCell id="b8mOVBxSiegJ0ctqpOjZ-38" value="" style="sketch=0;points=[[0.5,0,0],[1,0.5,0],[0.5,1,0],[0,0.5,0],[0.145,0.145,0],[0.8555,0.145,0],[0.855,0.8555,0],[0.145,0.855,0]];verticalLabelPosition=bottom;html=1;verticalAlign=top;aspect=fixed;align=center;pointerEvents=1;shape=mxgraph.cisco19.rect;prIcon=router;fillColor=#FAFAFA;strokeColor=#005073;" parent="1" vertex="1">
          <mxGeometry x="520" y="313" width="50" height="50" as="geometry" />
        </mxCell>
        <mxCell id="b8mOVBxSiegJ0ctqpOjZ-39" value="" style="sketch=0;points=[[0.5,0,0],[1,0.5,0],[0.5,1,0],[0,0.5,0],[0.145,0.145,0],[0.8555,0.145,0],[0.855,0.8555,0],[0.145,0.855,0]];verticalLabelPosition=bottom;html=1;verticalAlign=top;aspect=fixed;align=center;pointerEvents=1;shape=mxgraph.cisco19.rect;prIcon=router;fillColor=#FAFAFA;strokeColor=#005073;" parent="1" vertex="1">
          <mxGeometry x="711" y="313" width="50" height="50" as="geometry" />
        </mxCell>
        <mxCell id="b8mOVBxSiegJ0ctqpOjZ-40" value="" style="sketch=0;points=[[0.5,0,0],[1,0.5,0],[0.5,1,0],[0,0.5,0],[0.145,0.145,0],[0.8555,0.145,0],[0.855,0.8555,0],[0.145,0.855,0]];verticalLabelPosition=bottom;html=1;verticalAlign=top;aspect=fixed;align=center;pointerEvents=1;shape=mxgraph.cisco19.rect;prIcon=router;fillColor=#FAFAFA;strokeColor=#005073;" parent="1" vertex="1">
          <mxGeometry x="910" y="313" width="50" height="50" as="geometry" />
        </mxCell>
        <mxCell id="b8mOVBxSiegJ0ctqpOjZ-41" value="" style="endArrow=none;html=1;rounded=0;entryX=0.855;entryY=0.8555;entryDx=0;entryDy=0;entryPerimeter=0;exitX=0.5;exitY=0.116;exitDx=0;exitDy=0;exitPerimeter=0;" parent="1" source="b8mOVBxSiegJ0ctqpOjZ-28" target="b8mOVBxSiegJ0ctqpOjZ-40" edge="1">
          <mxGeometry width="50" height="50" relative="1" as="geometry">
            <mxPoint x="850" y="699" as="sourcePoint" />
            <mxPoint x="900" y="649" as="targetPoint" />
          </mxGeometry>
        </mxCell>
        <mxCell id="b8mOVBxSiegJ0ctqpOjZ-42" value="" style="endArrow=none;html=1;rounded=0;entryX=0.855;entryY=0.8555;entryDx=0;entryDy=0;entryPerimeter=0;exitX=0.276;exitY=0.196;exitDx=0;exitDy=0;exitPerimeter=0;" parent="1" source="b8mOVBxSiegJ0ctqpOjZ-28" target="b8mOVBxSiegJ0ctqpOjZ-39" edge="1">
          <mxGeometry width="50" height="50" relative="1" as="geometry">
            <mxPoint x="850" y="699" as="sourcePoint" />
            <mxPoint x="900" y="649" as="targetPoint" />
          </mxGeometry>
        </mxCell>
        <mxCell id="b8mOVBxSiegJ0ctqpOjZ-43" value="" style="endArrow=none;html=1;rounded=0;entryX=0.855;entryY=0.8555;entryDx=0;entryDy=0;entryPerimeter=0;exitX=0.096;exitY=0.308;exitDx=0;exitDy=0;exitPerimeter=0;" parent="1" source="b8mOVBxSiegJ0ctqpOjZ-28" target="b8mOVBxSiegJ0ctqpOjZ-38" edge="1">
          <mxGeometry width="50" height="50" relative="1" as="geometry">
            <mxPoint x="850" y="699" as="sourcePoint" />
            <mxPoint x="900" y="649" as="targetPoint" />
          </mxGeometry>
        </mxCell>
        <mxCell id="b8mOVBxSiegJ0ctqpOjZ-44" value="" style="endArrow=none;html=1;rounded=0;entryX=0.145;entryY=0.855;entryDx=0;entryDy=0;entryPerimeter=0;exitX=0.4;exitY=0.1;exitDx=0;exitDy=0;exitPerimeter=0;" parent="1" source="b8mOVBxSiegJ0ctqpOjZ-13" target="b8mOVBxSiegJ0ctqpOjZ-38" edge="1">
          <mxGeometry width="50" height="50" relative="1" as="geometry">
            <mxPoint x="850" y="699" as="sourcePoint" />
            <mxPoint x="900" y="649" as="targetPoint" />
          </mxGeometry>
        </mxCell>
        <mxCell id="b8mOVBxSiegJ0ctqpOjZ-45" value="" style="endArrow=none;html=1;rounded=0;entryX=0.145;entryY=0.855;entryDx=0;entryDy=0;entryPerimeter=0;exitX=0.625;exitY=0.2;exitDx=0;exitDy=0;exitPerimeter=0;" parent="1" source="b8mOVBxSiegJ0ctqpOjZ-13" target="b8mOVBxSiegJ0ctqpOjZ-39" edge="1">
          <mxGeometry width="50" height="50" relative="1" as="geometry">
            <mxPoint x="850" y="699" as="sourcePoint" />
            <mxPoint x="900" y="649" as="targetPoint" />
          </mxGeometry>
        </mxCell>
        <mxCell id="b8mOVBxSiegJ0ctqpOjZ-46" value="" style="endArrow=none;html=1;rounded=0;entryX=0.145;entryY=0.855;entryDx=0;entryDy=0;entryPerimeter=0;exitX=0.88;exitY=0.25;exitDx=0;exitDy=0;exitPerimeter=0;" parent="1" source="b8mOVBxSiegJ0ctqpOjZ-13" target="b8mOVBxSiegJ0ctqpOjZ-40" edge="1">
          <mxGeometry width="50" height="50" relative="1" as="geometry">
            <mxPoint x="850" y="699" as="sourcePoint" />
            <mxPoint x="900" y="649" as="targetPoint" />
          </mxGeometry>
        </mxCell>
        <mxCell id="b8mOVBxSiegJ0ctqpOjZ-47" value="" style="endArrow=none;html=1;rounded=0;entryX=0.495;entryY=0.953;entryDx=0;entryDy=0;entryPerimeter=0;exitX=0.5;exitY=0;exitDx=0;exitDy=0;exitPerimeter=0;" parent="1" target="b8mOVBxSiegJ0ctqpOjZ-13" edge="1" source="b8mOVBxSiegJ0ctqpOjZ-15">
          <mxGeometry width="50" height="50" relative="1" as="geometry">
            <mxPoint x="469" y="759" as="sourcePoint" />
            <mxPoint x="519" y="709" as="targetPoint" />
          </mxGeometry>
        </mxCell>
        <mxCell id="b8mOVBxSiegJ0ctqpOjZ-48" value="" style="endArrow=none;html=1;rounded=0;exitX=0.8555;exitY=0.145;exitDx=0;exitDy=0;exitPerimeter=0;entryX=0.193;entryY=0.808;entryDx=0;entryDy=0;entryPerimeter=0;" parent="1" source="b8mOVBxSiegJ0ctqpOjZ-16" target="b8mOVBxSiegJ0ctqpOjZ-28" edge="1">
          <mxGeometry width="50" height="50" relative="1" as="geometry">
            <mxPoint x="510" y="749" as="sourcePoint" />
            <mxPoint x="560" y="699" as="targetPoint" />
          </mxGeometry>
        </mxCell>
        <mxCell id="t32ZhQDPoRBqvyD3N0vk-1" value="" style="endArrow=none;html=1;rounded=0;exitX=1;exitY=0.5;exitDx=0;exitDy=0;exitPerimeter=0;entryX=0;entryY=0.5;entryDx=0;entryDy=0;entryPerimeter=0;" edge="1" parent="1" source="b8mOVBxSiegJ0ctqpOjZ-15" target="b8mOVBxSiegJ0ctqpOjZ-16">
          <mxGeometry width="50" height="50" relative="1" as="geometry">
            <mxPoint x="740" y="749" as="sourcePoint" />
            <mxPoint x="790" y="699" as="targetPoint" />
          </mxGeometry>
        </mxCell>
        <mxCell id="t32ZhQDPoRBqvyD3N0vk-2" value="" style="sketch=0;points=[[0.5,0,0],[1,0.5,0],[0.5,1,0],[0,0.5,0],[0.145,0.145,0],[0.8555,0.145,0],[0.855,0.8555,0],[0.145,0.855,0]];verticalLabelPosition=bottom;html=1;verticalAlign=top;aspect=fixed;align=center;pointerEvents=1;shape=mxgraph.cisco19.rect;prIcon=router;fillColor=#FAFAFA;strokeColor=#005073;" vertex="1" parent="1">
          <mxGeometry x="670" y="799" width="50" height="50" as="geometry" />
        </mxCell>
        <mxCell id="t32ZhQDPoRBqvyD3N0vk-4" value="" style="endArrow=none;html=1;rounded=0;exitX=0.145;exitY=0.145;exitDx=0;exitDy=0;exitPerimeter=0;entryX=0.741;entryY=0.885;entryDx=0;entryDy=0;entryPerimeter=0;" edge="1" parent="1" source="t32ZhQDPoRBqvyD3N0vk-2" target="b8mOVBxSiegJ0ctqpOjZ-13">
          <mxGeometry width="50" height="50" relative="1" as="geometry">
            <mxPoint x="740" y="749" as="sourcePoint" />
            <mxPoint x="790" y="699" as="targetPoint" />
          </mxGeometry>
        </mxCell>
        <mxCell id="t32ZhQDPoRBqvyD3N0vk-5" value="AS X" style="ellipse;shape=cloud;whiteSpace=wrap;html=1;labelBackgroundColor=none;fontFamily=Lucida Console;" vertex="1" parent="1">
          <mxGeometry x="450" y="72" width="170" height="112" as="geometry" />
        </mxCell>
        <mxCell id="t32ZhQDPoRBqvyD3N0vk-6" value="AS Y" style="ellipse;shape=cloud;whiteSpace=wrap;html=1;labelBackgroundColor=none;fontFamily=Lucida Console;" vertex="1" parent="1">
          <mxGeometry x="642" y="161" width="170" height="112" as="geometry" />
        </mxCell>
        <mxCell id="t32ZhQDPoRBqvyD3N0vk-7" value="AS X" style="ellipse;shape=cloud;whiteSpace=wrap;html=1;labelBackgroundColor=none;fontFamily=Lucida Console;" vertex="1" parent="1">
          <mxGeometry x="841" y="72" width="170" height="112" as="geometry" />
        </mxCell>
        <mxCell id="t32ZhQDPoRBqvyD3N0vk-8" value="" style="endArrow=none;html=1;rounded=0;entryX=0.55;entryY=0.95;entryDx=0;entryDy=0;entryPerimeter=0;" edge="1" parent="1" source="b8mOVBxSiegJ0ctqpOjZ-38" target="t32ZhQDPoRBqvyD3N0vk-5">
          <mxGeometry width="50" height="50" relative="1" as="geometry">
            <mxPoint x="660" y="540" as="sourcePoint" />
            <mxPoint x="710" y="490" as="targetPoint" />
          </mxGeometry>
        </mxCell>
        <mxCell id="t32ZhQDPoRBqvyD3N0vk-9" value="" style="endArrow=none;html=1;rounded=0;entryX=0.55;entryY=0.95;entryDx=0;entryDy=0;entryPerimeter=0;exitX=0.5;exitY=0;exitDx=0;exitDy=0;exitPerimeter=0;" edge="1" parent="1" source="b8mOVBxSiegJ0ctqpOjZ-39" target="t32ZhQDPoRBqvyD3N0vk-6">
          <mxGeometry width="50" height="50" relative="1" as="geometry">
            <mxPoint x="660" y="540" as="sourcePoint" />
            <mxPoint x="710" y="490" as="targetPoint" />
          </mxGeometry>
        </mxCell>
        <mxCell id="t32ZhQDPoRBqvyD3N0vk-10" value="" style="endArrow=none;html=1;rounded=0;entryX=0.55;entryY=0.95;entryDx=0;entryDy=0;entryPerimeter=0;exitX=0.5;exitY=0;exitDx=0;exitDy=0;exitPerimeter=0;" edge="1" parent="1" source="b8mOVBxSiegJ0ctqpOjZ-40" target="t32ZhQDPoRBqvyD3N0vk-7">
          <mxGeometry width="50" height="50" relative="1" as="geometry">
            <mxPoint x="660" y="540" as="sourcePoint" />
            <mxPoint x="710" y="490" as="targetPoint" />
          </mxGeometry>
        </mxCell>
        <mxCell id="t32ZhQDPoRBqvyD3N0vk-11" value="" style="endArrow=none;html=1;rounded=0;exitX=0.8;exitY=0.8;exitDx=0;exitDy=0;exitPerimeter=0;entryX=0.07;entryY=0.4;entryDx=0;entryDy=0;entryPerimeter=0;" edge="1" parent="1" source="t32ZhQDPoRBqvyD3N0vk-5" target="t32ZhQDPoRBqvyD3N0vk-6">
          <mxGeometry width="50" height="50" relative="1" as="geometry">
            <mxPoint x="660" y="540" as="sourcePoint" />
            <mxPoint x="710" y="490" as="targetPoint" />
          </mxGeometry>
        </mxCell>
        <mxCell id="t32ZhQDPoRBqvyD3N0vk-12" value="" style="endArrow=none;html=1;rounded=0;entryX=0.13;entryY=0.77;entryDx=0;entryDy=0;entryPerimeter=0;" edge="1" parent="1" target="t32ZhQDPoRBqvyD3N0vk-7">
          <mxGeometry width="50" height="50" relative="1" as="geometry">
            <mxPoint x="791" y="190" as="sourcePoint" />
            <mxPoint x="841" y="140" as="targetPoint" />
          </mxGeometry>
        </mxCell>
        <mxCell id="t32ZhQDPoRBqvyD3N0vk-13" value="" style="endArrow=none;html=1;rounded=0;exitX=0.912;exitY=0.411;exitDx=0;exitDy=0;exitPerimeter=0;" edge="1" parent="1" source="t32ZhQDPoRBqvyD3N0vk-5">
          <mxGeometry width="50" height="50" relative="1" as="geometry">
            <mxPoint x="660" y="540" as="sourcePoint" />
            <mxPoint x="853" y="117" as="targetPoint" />
          </mxGeometry>
        </mxCell>
        <mxCell id="t32ZhQDPoRBqvyD3N0vk-14" value="" style="sketch=0;points=[[0.5,0,0],[1,0.5,0],[0.5,1,0],[0,0.5,0],[0.145,0.145,0],[0.8555,0.145,0],[0.855,0.8555,0],[0.145,0.855,0]];verticalLabelPosition=bottom;html=1;verticalAlign=top;aspect=fixed;align=center;pointerEvents=1;shape=mxgraph.cisco19.rect;prIcon=router;fillColor=#FAFAFA;strokeColor=#005073;" vertex="1" parent="1">
          <mxGeometry x="760" y="799" width="50" height="50" as="geometry" />
        </mxCell>
        <mxCell id="t32ZhQDPoRBqvyD3N0vk-15" value="" style="endArrow=none;html=1;rounded=0;exitX=0.145;exitY=0.145;exitDx=0;exitDy=0;exitPerimeter=0;entryX=0.772;entryY=0.838;entryDx=0;entryDy=0;entryPerimeter=0;" edge="1" parent="1" source="t32ZhQDPoRBqvyD3N0vk-14" target="b8mOVBxSiegJ0ctqpOjZ-13">
          <mxGeometry width="50" height="50" relative="1" as="geometry">
            <mxPoint x="660" y="540" as="sourcePoint" />
            <mxPoint x="710" y="490" as="targetPoint" />
          </mxGeometry>
        </mxCell>
      </root>
    </mxGraphModel>
  </diagram>
</mxfile>
